<?xml version="1.0" standalone="no"?><!DOCTYPE svg PUBLIC "-//W3C//DTD SVG 1.1//EN" "http://www.w3.org/Graphics/SVG/1.1/DTD/svg11.dtd"><svg t="1698157296018" class="icon" viewBox="0 0 1024 1024" version="1.1" xmlns="http://www.w3.org/2000/svg" p-id="1488" width="64" height="64" xmlns:xlink="http://www.w3.org/1999/xlink"><path d="M42.666667 512C42.666667 251.733333 251.733333 42.666667 512 42.666667s469.333333 209.066667 469.333333 469.333333-209.066667 469.333333-469.333333 469.333333S42.666667 772.266667 42.666667 512z m469.333333 384c93.866667 0 187.733333-34.133333 256-98.133333V768c0-8.533333-17.066667-85.333333-256-85.333333-251.733333 0-256 85.333333-256 85.333333v29.866667c68.266667 64 162.133333 98.133333 256 98.133333z m324.266667-179.2c38.4-59.733333 59.733333-132.266667 59.733333-204.8 0-213.333333-170.666667-384-384-384s-384 170.666667-384 384c0 72.533333 21.333333 145.066667 59.733333 204.8 42.666667-68.266667 174.933333-119.466667 324.266667-119.466667s281.6 51.2 324.266667 119.466667zM341.333333 384c0-93.866667 76.8-170.666667 170.666667-170.666667s170.666667 76.8 170.666667 170.666667-76.8 170.666667-170.666667 170.666667-170.666667-76.8-170.666667-170.666667z m85.333334 0c0 46.933333 38.4 85.333333 85.333333 85.333333s85.333333-38.4 85.333333-85.333333-38.4-85.333333-85.333333-85.333333-85.333333 38.4-85.333333 85.333333z" p-id="1489" fill="#8a8a8a"></path></svg>